<?xml version='1.0' encoding='iso-8859-1'?>
<!-- Uploaded to: SVG Repo, www.svgrepo.com, Generator: SVG Repo Mixer Tools -->
<svg fill="#000000" height="800px" width="800px" version="1.1" xmlns="http://www.w3.org/2000/svg" viewBox="0 0 470 470" xmlns:xlink="http://www.w3.org/1999/xlink" enable-background="new 0 0 470 470">
  <g>
    <path d="m122.746,75h224.507c4.143,0 7.5-3.357 7.5-7.5s-3.357-7.5-7.5-7.5h-224.507c-4.143,0-7.5,3.357-7.5,7.5s3.358,7.5 7.5,7.5z"/>
    <path d="m120.566,105h228.866c4.143,0 7.5-3.357 7.5-7.5s-3.357-7.5-7.5-7.5h-228.866c-4.143,0-7.5,3.357-7.5,7.5s3.358,7.5 7.5,7.5z"/>
    <path d="m118.39,135h233.22c4.143,0 7.5-3.357 7.5-7.5s-3.357-7.5-7.5-7.5h-233.22c-4.143,0-7.5,3.357-7.5,7.5s3.357,7.5 7.5,7.5z"/>
    <path d="m361.289,157.5c0-4.143-3.357-7.5-7.5-7.5h-237.579c-4.143,0-7.5,3.357-7.5,7.5s3.357,7.5 7.5,7.5h237.579c4.143,0 7.5-3.357 7.5-7.5z"/>
    <path d="m227.5,217.5v155c0,4.143 3.357,7.5 7.5,7.5s7.5-3.357 7.5-7.5v-155c0-4.143-3.357-7.5-7.5-7.5s-7.5,3.357-7.5,7.5z"/>
    <path d="m79.766,373.448c0.672,3.608 3.822,6.129 7.364,6.128 0.456,0 0.918-0.041 1.382-0.128 4.072-0.758 6.759-4.674 6-8.746l-27.115-145.632 139.645-27.799c15.154-3.018 40.761-3.018 55.917,0l123.567,24.599c0.029,0.006 0.057,0.012 0.086,0.017l15.99,3.183-27.113,145.623c-0.759,4.072 1.928,7.988 6,8.746 4.065,0.766 7.987-1.928 8.746-6l28.47-152.905c0.752-4.037-1.882-7.927-5.909-8.729l-17.72-3.528-12.442-171.32c-0.285-3.921-3.549-6.957-7.48-6.957h-52.5v-22.5c0-4.143-3.357-7.5-7.5-7.5s-7.5,3.357-7.5,7.5v22.5h-17.094l-8.291-24.872c-1.021-3.063-3.887-5.128-7.116-5.128h-80.307c-3.229,0-6.095,2.065-7.115,5.128l-8.29,24.872h-17.094v-22.5c0-4.143-3.357-7.5-7.5-7.5s-7.5,3.357-7.5,7.5v22.5h-52.5c-3.932,0-7.195,3.036-7.48,6.957l-12.442,171.321-17.72,3.528c-4.027,0.802-6.661,4.691-5.909,8.729l28.47,152.913zm120.486-358.448h69.496l5,15h-79.495l4.999-15zm-98.43,30h183.305c0.049,0 83.05,0 83.05,0l11.637,160.24-113.927-22.68c-17.033-3.39-44.745-3.391-61.774,0l-113.928,22.68 11.637-160.24z"/>
    <path d="m7.5,410c14.17,0 27.804-5.631 37.928-15.386 10.123,9.755 23.745,15.386 37.893,15.386 14.187,0 27.829-5.627 37.956-15.379 10.102,9.751 23.725,15.379 37.903,15.379 14.375,0 27.786-5.511 37.932-15.366 10.1,9.743 23.718,15.366 37.89,15.366 14.16,0 27.784-5.623 37.906-15.366 10.123,9.855 23.529,15.366 37.916,15.366 14.17,0 27.803-5.63 37.927-15.386 10.124,9.756 23.758,15.386 37.928,15.386 14.178,0 27.801-5.627 37.902-15.378 10.124,9.751 23.753,15.378 37.919,15.378 4.143,0 7.5-3.357 7.5-7.5s-3.357-7.5-7.5-7.5c-12.674,0-24.3-5.896-31.896-16.174-1.414-1.914-3.651-3.043-6.031-3.043-2.389,0.002-4.628,1.136-6.04,3.054-7.45,10.121-19.358,16.163-31.854,16.163-12.488,0-24.412-6.046-31.896-16.174-1.414-1.914-3.652-3.043-6.032-3.043s-4.618,1.129-6.032,3.043c-7.484,10.128-19.406,16.174-31.895,16.174-12.651,0-24.265-5.896-31.863-16.175-1.414-1.913-3.652-3.042-6.031-3.042-2.38,0-4.617,1.129-6.031,3.043-7.486,10.127-19.41,16.174-31.897,16.174-12.497,0-24.405-6.042-31.854-16.163-1.41-1.916-3.646-3.049-6.025-3.054-2.389,0-4.622,1.124-6.037,3.03-7.635,10.288-19.264,16.187-31.906,16.187-12.496,0-24.404-6.042-31.854-16.163-1.412-1.918-3.651-3.052-6.033-3.054-2.386,0-4.625,1.129-6.039,3.043-7.483,10.128-19.421,16.174-31.933,16.174-12.464,0-24.375-6.047-31.862-16.175-1.415-1.914-3.652-3.042-6.032-3.042-2.379,0-4.617,1.13-6.031,3.043-7.595,10.278-19.221,16.174-31.896,16.174-4.143,0-7.5,3.357-7.5,7.5s3.357,7.5 7.5,7.5z"/>
    <path d="m462.5,455c-12.674,0-24.3-5.896-31.896-16.174-1.414-1.914-3.651-3.043-6.031-3.043-2.389,0.002-4.628,1.136-6.04,3.054-7.45,10.121-19.358,16.163-31.854,16.163-12.488,0-24.412-6.046-31.896-16.174-1.414-1.914-3.652-3.043-6.032-3.043s-4.618,1.129-6.032,3.043c-7.484,10.128-19.406,16.174-31.895,16.174-12.651,0-24.265-5.896-31.863-16.175-1.414-1.913-3.652-3.042-6.031-3.042-2.38,0-4.617,1.129-6.031,3.043-7.486,10.127-19.41,16.174-31.897,16.174-12.497,0-24.405-6.042-31.854-16.163-1.41-1.916-3.646-3.049-6.025-3.054-2.389,0-4.622,1.124-6.037,3.03-7.635,10.288-19.264,16.187-31.906,16.187-12.496,0-24.404-6.042-31.854-16.163-1.412-1.918-3.651-3.052-6.033-3.054-2.386,0-4.625,1.129-6.039,3.043-7.483,10.128-19.421,16.174-31.933,16.174-12.464,0-24.375-6.047-31.862-16.175-1.415-1.914-3.652-3.042-6.032-3.042-2.379,0-4.617,1.13-6.031,3.043-7.595,10.278-19.221,16.174-31.896,16.174-4.143,0-7.5,3.357-7.5,7.5s3.357,7.5 7.5,7.5c14.17,0 27.804-5.631 37.928-15.386 10.123,9.755 23.745,15.386 37.893,15.386 14.187,0 27.829-5.627 37.956-15.379 10.102,9.751 23.725,15.379 37.903,15.379 14.375,0 27.786-5.511 37.932-15.366 10.1,9.743 23.718,15.366 37.89,15.366 14.16,0 27.784-5.623 37.906-15.366 10.123,9.855 23.529,15.366 37.916,15.366 14.17,0 27.803-5.63 37.927-15.386 10.124,9.756 23.758,15.386 37.928,15.386 14.178,0 27.801-5.627 37.902-15.378 10.124,9.751 23.753,15.378 37.919,15.378 4.143,0 7.5-3.357 7.5-7.5s-3.357-7.5-7.5-7.5z"/>
  </g>
</svg>