<?xml version='1.0' encoding='iso-8859-1'?>
<!-- Uploaded to: SVG Repo, www.svgrepo.com, Generator: SVG Repo Mixer Tools -->
<svg fill="#000000" height="800px" width="800px" version="1.1" xmlns="http://www.w3.org/2000/svg" viewBox="0 0 470 470" xmlns:xlink="http://www.w3.org/1999/xlink" enable-background="new 0 0 470 470">
  <g>
    <path d="m95.292,370.25c0,4.142 3.358,7.5 7.5,7.5h264.416c4.143,0 7.5-3.358 7.5-7.5s-3.357-7.5-7.5-7.5h-264.416c-4.142,0-7.5,3.358-7.5,7.5z"/>
    <path d="m102.792,310.711h17.718c13.697,0 25.248,9.372 28.575,22.039h-46.293c-4.142,0-7.5,3.358-7.5,7.5s3.358,7.5 7.5,7.5h54.757c4.142,0 7.5-3.358 7.5-7.5 0-24.559-19.98-44.539-44.54-44.539h-17.718c-4.142,0-7.5,3.358-7.5,7.5s3.359,7.5 7.501,7.5z"/>
    <path d="m312.451,347.75h54.757c4.143,0 7.5-3.358 7.5-7.5s-3.357-7.5-7.5-7.5h-46.292c3.327-12.667 14.877-22.039 28.574-22.039h17.718c4.143,0 7.5-3.358 7.5-7.5s-3.357-7.5-7.5-7.5h-17.718c-24.559,0-44.539,19.98-44.539,44.539 0,4.142 3.358,7.5 7.5,7.5z"/>
    <path d="M427.208,0H42.792c-4.142,0-7.5,3.358-7.5,7.5v332.75c0,4.142,3.358,7.5,7.5,7.5h22.5v62.5c0,4.142,3.358,7.5,7.5,7.5h2.5   v44.75c0,4.142,3.358,7.5,7.5,7.5h64.186c4.142,0,7.5-3.358,7.5-7.5v-22.25c0-4.142-3.358-7.5-7.5-7.5s-7.5,3.358-7.5,7.5V455   H90.292v-37.25h287.743V455H328.85v-14.75c0-4.142-3.357-7.5-7.5-7.5s-7.5,3.358-7.5,7.5v22.25c0,4.142,3.357,7.5,7.5,7.5h64.186   c4.143,0,7.5-3.358,7.5-7.5v-44.75h4.173c4.143,0,7.5-3.358,7.5-7.5v-62.5h22.5c4.143,0,7.5-3.358,7.5-7.5V7.5   C434.708,3.358,431.351,0,427.208,0z M102.792,232.625c-4.142,0-7.5,3.358-7.5,7.5s3.358,7.5,7.5,7.5h264.416   c4.143,0,7.5-3.358,7.5-7.5s-3.357-7.5-7.5-7.5H242.5V117.5h119.708c15.164,0,27.5,12.336,27.5,27.5v257.75H80.292v-62.49   c0-0.019,0-195.26,0-195.26c0-15.164,12.336-27.5,27.5-27.5H227.5v115.125H102.792z M419.708,332.75h-15V145   c0-23.435-19.065-42.5-42.5-42.5H107.792c-23.435,0-42.5,19.065-42.5,42.5v187.75h-15V15h369.416V332.75z"/>
    <path d="m457.208,186.881c-4.143,0-7.5,3.358-7.5,7.5v45.744c0,4.142 3.357,7.5 7.5,7.5s7.5-3.358 7.5-7.5v-45.744c0-4.142-3.357-7.5-7.5-7.5z"/>
    <path d="m12.792,186.881c-4.142,0-7.5,3.358-7.5,7.5v45.744c0,4.142 3.358,7.5 7.5,7.5s7.5-3.358 7.5-7.5v-45.744c0-4.142-3.358-7.5-7.5-7.5z"/>
  </g>
</svg>